<?xml version="1.0" encoding="UTF-8"?>
<svg xmlns="http://www.w3.org/2000/svg" version="1.1" width="300" height="300" viewBox="0 0 300 300"><rect x="0" y="0" width="300" height="300" fill="#ffffff"/><g transform="scale(9.091)"><g transform="translate(2,2)"><path fill-rule="evenodd" d="M8 0L8 4L10 4L10 3L11 3L11 4L12 4L12 2L11 2L11 0ZM12 0L12 1L13 1L13 0ZM15 0L15 1L16 1L16 0ZM18 0L18 1L17 1L17 2L16 2L16 3L15 3L15 2L14 2L14 3L13 3L13 5L11 5L11 6L10 6L10 7L9 7L9 5L8 5L8 7L9 7L9 8L10 8L10 7L11 7L11 6L12 6L12 8L11 8L11 9L7 9L7 8L4 8L4 10L2 10L2 8L0 8L0 10L2 10L2 11L3 11L3 12L0 12L0 13L2 13L2 14L0 14L0 16L1 16L1 17L0 17L0 18L1 18L1 17L2 17L2 20L0 20L0 21L3 21L3 20L6 20L6 21L7 21L7 20L6 20L6 19L8 19L8 20L10 20L10 21L8 21L8 22L10 22L10 23L11 23L11 22L10 22L10 21L11 21L11 20L12 20L12 21L13 21L13 22L14 22L14 25L15 25L15 26L14 26L14 29L15 29L15 27L16 27L16 29L18 29L18 28L19 28L19 29L21 29L21 26L22 26L22 25L26 25L26 23L27 23L27 25L28 25L28 26L27 26L27 29L28 29L28 28L29 28L29 17L28 17L28 16L29 16L29 13L28 13L28 12L29 12L29 8L25 8L25 9L24 9L24 8L23 8L23 9L22 9L22 10L21 10L21 9L20 9L20 8L19 8L19 6L20 6L20 7L21 7L21 4L20 4L20 3L21 3L21 2L20 2L20 1L19 1L19 0ZM9 2L9 3L10 3L10 2ZM16 3L16 4L17 4L17 7L16 7L16 5L15 5L15 4L14 4L14 6L13 6L13 8L12 8L12 9L11 9L11 10L7 10L7 9L6 9L6 10L7 10L7 11L6 11L6 12L3 12L3 13L4 13L4 15L5 15L5 13L6 13L6 14L7 14L7 15L6 15L6 16L7 16L7 17L5 17L5 19L6 19L6 18L9 18L9 17L10 17L10 15L11 15L11 16L12 16L12 17L11 17L11 18L10 18L10 19L11 19L11 18L12 18L12 17L13 17L13 19L12 19L12 20L13 20L13 21L15 21L15 20L16 20L16 21L17 21L17 19L18 19L18 18L16 18L16 19L14 19L14 17L16 17L16 15L15 15L15 14L14 14L14 15L13 15L13 13L17 13L17 14L19 14L19 15L18 15L18 17L19 17L19 20L18 20L18 21L19 21L19 22L20 22L20 20L23 20L23 19L24 19L24 20L26 20L26 21L25 21L25 22L27 22L27 23L28 23L28 20L27 20L27 19L28 19L28 18L27 18L27 15L28 15L28 14L27 14L27 11L28 11L28 10L24 10L24 11L23 11L23 10L22 10L22 11L23 11L23 12L22 12L22 13L21 13L21 10L20 10L20 9L19 9L19 8L18 8L18 9L17 9L17 7L18 7L18 6L19 6L19 5L20 5L20 4L18 4L18 3ZM14 6L14 7L15 7L15 8L16 8L16 7L15 7L15 6ZM12 9L12 10L11 10L11 11L10 11L10 13L9 13L9 14L8 14L8 15L9 15L9 14L10 14L10 13L11 13L11 12L12 12L12 13L13 13L13 12L12 12L12 11L13 11L13 10L15 10L15 11L14 11L14 12L16 12L16 11L17 11L17 13L18 13L18 12L19 12L19 13L20 13L20 14L21 14L21 13L20 13L20 12L19 12L19 11L17 11L17 9ZM4 10L4 11L5 11L5 10ZM7 11L7 12L6 12L6 13L7 13L7 12L8 12L8 11ZM24 11L24 12L25 12L25 11ZM22 13L22 14L26 14L26 15L27 15L27 14L26 14L26 13ZM1 15L1 16L2 16L2 17L4 17L4 16L3 16L3 15ZM12 15L12 16L13 16L13 15ZM23 15L23 16L24 16L24 15ZM19 16L19 17L20 17L20 18L21 18L21 19L23 19L23 18L24 18L24 19L27 19L27 18L25 18L25 17L26 17L26 16L25 16L25 17L22 17L22 16L21 16L21 17L20 17L20 16ZM21 21L21 24L24 24L24 21ZM16 22L16 23L15 23L15 24L16 24L16 26L18 26L18 25L19 25L19 24L20 24L20 23L19 23L19 24L18 24L18 25L17 25L17 22ZM22 22L22 23L23 23L23 22ZM8 23L8 25L9 25L9 26L10 26L10 27L8 27L8 29L9 29L9 28L10 28L10 29L11 29L11 28L12 28L12 27L13 27L13 23L12 23L12 24L11 24L11 25L9 25L9 23ZM11 25L11 26L12 26L12 25ZM20 25L20 26L19 26L19 27L20 27L20 26L21 26L21 25ZM10 27L10 28L11 28L11 27ZM22 27L22 28L23 28L23 29L24 29L24 28L25 28L25 29L26 29L26 27L24 27L24 28L23 28L23 27ZM0 0L0 7L7 7L7 0ZM1 1L1 6L6 6L6 1ZM2 2L2 5L5 5L5 2ZM22 0L22 7L29 7L29 0ZM23 1L23 6L28 6L28 1ZM24 2L24 5L27 5L27 2ZM0 22L0 29L7 29L7 22ZM1 23L1 28L6 28L6 23ZM2 24L2 27L5 27L5 24Z" fill="#000000"/></g></g></svg>
