<?xml version="1.0" encoding="UTF-8"?>
<svg xmlns="http://www.w3.org/2000/svg" version="1.1" width="300" height="300" viewBox="0 0 300 300"><rect x="0" y="0" width="300" height="300" fill="#ffffff"/><g transform="scale(9.091)"><g transform="translate(2,2)"><path fill-rule="evenodd" d="M10 0L10 2L11 2L11 0ZM12 0L12 1L13 1L13 2L12 2L12 4L14 4L14 7L15 7L15 8L13 8L13 9L12 9L12 7L13 7L13 5L11 5L11 6L10 6L10 4L11 4L11 3L8 3L8 4L9 4L9 5L8 5L8 7L9 7L9 8L6 8L6 9L5 9L5 8L0 8L0 14L1 14L1 10L3 10L3 11L2 11L2 14L4 14L4 10L3 10L3 9L5 9L5 10L6 10L6 11L7 11L7 12L6 12L6 13L7 13L7 14L5 14L5 15L8 15L8 14L10 14L10 15L11 15L11 17L10 17L10 16L8 16L8 18L11 18L11 17L12 17L12 18L14 18L14 19L16 19L16 20L17 20L17 21L16 21L16 22L14 22L14 24L12 24L12 23L13 23L13 22L9 22L9 21L11 21L11 19L10 19L10 20L8 20L8 19L7 19L7 18L6 18L6 17L7 17L7 16L4 16L4 15L2 15L2 16L1 16L1 15L0 15L0 16L1 16L1 17L0 17L0 21L1 21L1 17L2 17L2 21L3 21L3 19L5 19L5 21L7 21L7 20L8 20L8 23L10 23L10 24L8 24L8 29L10 29L10 28L13 28L13 29L14 29L14 28L15 28L15 29L18 29L18 28L15 28L15 27L16 27L16 26L15 26L15 25L14 25L14 24L15 24L15 23L16 23L16 24L17 24L17 25L18 25L18 26L19 26L19 25L18 25L18 24L17 24L17 22L19 22L19 23L20 23L20 27L19 27L19 28L21 28L21 29L22 29L22 28L21 28L21 25L25 25L25 26L22 26L22 27L23 27L23 29L24 29L24 27L25 27L25 28L26 28L26 29L27 29L27 28L28 28L28 26L29 26L29 24L28 24L28 23L27 23L27 22L29 22L29 20L28 20L28 19L27 19L27 16L28 16L28 15L27 15L27 12L28 12L28 11L27 11L27 12L25 12L25 13L21 13L21 12L22 12L22 11L23 11L23 12L24 12L24 11L25 11L25 9L26 9L26 8L25 8L25 9L24 9L24 8L23 8L23 9L22 9L22 8L20 8L20 9L19 9L19 10L17 10L17 9L18 9L18 8L17 8L17 4L18 4L18 3L15 3L15 2L16 2L16 1L15 1L15 0ZM18 0L18 1L17 1L17 2L19 2L19 5L20 5L20 3L21 3L21 0ZM8 1L8 2L9 2L9 1ZM19 1L19 2L20 2L20 1ZM13 2L13 3L14 3L14 2ZM15 4L15 5L16 5L16 4ZM9 6L9 7L10 7L10 6ZM11 6L11 7L12 7L12 6ZM15 6L15 7L16 7L16 6ZM18 6L18 7L19 7L19 6ZM20 6L20 7L21 7L21 6ZM10 8L10 9L8 9L8 10L9 10L9 11L8 11L8 12L7 12L7 13L9 13L9 12L11 12L11 13L10 13L10 14L14 14L14 15L12 15L12 17L13 17L13 16L18 16L18 17L20 17L20 18L18 18L18 19L17 19L17 20L18 20L18 21L19 21L19 20L22 20L22 19L23 19L23 20L24 20L24 19L25 19L25 21L26 21L26 20L27 20L27 19L25 19L25 18L24 18L24 19L23 19L23 18L22 18L22 17L26 17L26 16L27 16L27 15L26 15L26 13L25 13L25 16L24 16L24 15L23 15L23 16L22 16L22 14L21 14L21 13L20 13L20 12L21 12L21 9L20 9L20 10L19 10L19 11L17 11L17 10L16 10L16 9L17 9L17 8L16 8L16 9L13 9L13 10L12 10L12 9L11 9L11 8ZM27 8L27 9L28 9L28 10L29 10L29 9L28 9L28 8ZM6 9L6 10L7 10L7 9ZM10 9L10 11L11 11L11 9ZM15 10L15 11L14 11L14 12L13 12L13 11L12 11L12 13L16 13L16 14L15 14L15 15L16 15L16 14L17 14L17 13L18 13L18 12L17 12L17 11L16 11L16 10ZM23 10L23 11L24 11L24 10ZM16 12L16 13L17 13L17 12ZM19 13L19 14L20 14L20 13ZM28 13L28 14L29 14L29 13ZM18 15L18 16L19 16L19 15ZM3 16L3 18L4 18L4 16ZM20 16L20 17L21 17L21 16ZM14 17L14 18L16 18L16 17ZM28 17L28 18L29 18L29 17ZM21 18L21 19L22 19L22 18ZM6 19L6 20L7 20L7 19ZM12 19L12 21L15 21L15 20L13 20L13 19ZM21 21L21 24L24 24L24 21ZM22 22L22 23L23 23L23 22ZM26 23L26 24L25 24L25 25L26 25L26 24L27 24L27 25L28 25L28 24L27 24L27 23ZM10 24L10 25L11 25L11 26L10 26L10 27L9 27L9 28L10 28L10 27L13 27L13 28L14 28L14 26L12 26L12 25L11 25L11 24ZM25 26L25 27L26 27L26 28L27 28L27 26ZM0 0L0 7L7 7L7 0ZM1 1L1 6L6 6L6 1ZM2 2L2 5L5 5L5 2ZM22 0L22 7L29 7L29 0ZM23 1L23 6L28 6L28 1ZM24 2L24 5L27 5L27 2ZM0 22L0 29L7 29L7 22ZM1 23L1 28L6 28L6 23ZM2 24L2 27L5 27L5 24Z" fill="#000000"/></g></g></svg>
